<svg xmlns="http://www.w3.org/2000/svg" viewBox="-30 -30 60 60" width="60" height="60">
<path d="M 2 -0.161 A 12.5 12.5 0 0 0 12.31 -10.33 Q 14.31 -13.75 18.2 -16.75 L 16.7 -16.75 L 12.44 -13.73 A 12.5 12.5 0 0 0 -12.44 -13.73 L -16.7 -16.75 L -18.2 -16.75 Q -14.31 -13.75 -12.31 -10.33 A 12.5 12.5 0 0 0 -2 -0.161 V 5.052 A 22 24 -20 0 1 -19.41 -7.684 A 20 20 0 0 0 -2 7.4 V 12.75 H -10 V 13.75 H -2 V 19 Q -2 24 -4.5 24 V 25 H 4.5 V 24 Q 2 24 2 19 V 13.75 H 6.75 Q 9.25 13.75 9.25 15.25 H 10 V 12.75 H 2 V 7.4 A 20 20 0 0 0 17.97 -3.726 A 22 24 -20 0 1 2 5.253 Z  M -8.821 -13.83 A 8.5 11 -20 0 1 8.382 -14.14 L 4.7 -16.75 L 3.2 -16.75 Q 6.845 -13.94 8.829 -10.76 A 8.5 11 -20 0 1 -8.487 -11.29 Q -6.542 -14.17 -3.2 -16.75 L -4.7 -16.75 Z " transform="matrix(0.6 0.0 0.0 0.6 0.0 0.0)"  /></svg>