<svg xmlns="http://www.w3.org/2000/svg" viewBox="-30 -30 60 60" width="60" height="60">
<path d="M 17 -18.33 A 25 25 0 1 0 17 18.33 A 22.57 22.57 -20 0 1 8.894 22 A 21.6 25.65 -20 0 1 -3.489 5.243 C -1.914 3.807 -0.3395 2.227 1.235 0.75 H 27.26 L 22.73 8 L 22.73 10 Q 28.23 2 35.73 0 Q 28.23 -2 22.73 -10 L 22.73 -8 L 25.48 -3.602 C 21.48 -6.483 17.48 -8.803 13.49 -8.352 S 5.496 -4.595 1.5 -0.75 H -4.54 A 21.6 25.65 -20 0 1 5.437 -22.52 A 22.57 22.57 -20 0 1 17 -18.33 Z  M -18.74 -0.75 A 22.57 22.57 -20 0 1 2.641 -22.54 A 27 27 0 0 0 -9.49 -0.75 Z  M -18.22 4.854 A 22.57 22.57 -20 0 1 -18.74 0.75 H -9.49 A 27 27 0 0 0 -8.562 7.053 C -11.78 8.263 -15 7.467 -18.22 4.854 Z  M 2.641 22.54 A 22.57 22.57 -20 0 1 -16.57 9.672 C -13.73 10.91 -10.88 10.49 -8.033 8.778 A 27 27 0 0 0 2.641 22.54 Z  M -3.784 4.115 A 21.6 25.65 -20 0 1 -4.395 0.75 H -0.0563 C -1.299 1.942 -2.542 3.104 -3.784 4.115 Z  M 2.884 -0.75 C 6.401 -3.832 9.918 -5.791 13.44 -5.633 S 20.47 -3.292 23.99 -0.75 Z " transform="matrix(0.5763491045195387 0.0 0.0 0.5763491045195387 0.0 0.0)"  /></svg>