<svg xmlns="http://www.w3.org/2000/svg" viewBox="-30 -30 60 60" width="60" height="60">
<path d="M -26.66 7 Q -23.33 5.972 -23.66 4 A 24 24 0 1 1 23.66 4 Q 23.33 5.972 26.66 7 H 20.39 A 21 22.5 -20 1 0 -19.8 7 Z  M -20.55 7 Q -17.11 5.95 -17.55 4 A 18 18 0 1 1 17.55 4 Q 17.11 5.95 20.55 7 H 14.09 A 15 16.5 -20 1 0 -13.29 7 Z  M -14.31 7 Q -10.65 5.886 -11.31 4 A 12 12 0 1 1 11.31 4 Q 10.65 5.886 14.31 7 H 7.343 A 9 10.5 -20 1 0 -6.111 7 Z  M 1 1.732 L 1.5 6.732 L -1.5 6.732 L -1 1.732 L -5.08 4.665 L -6.58 2.067 L -2 0 L -6.58 -2.067 L -5.08 -4.665 L -1 -1.732 L -1.5 -6.732 L 1.5 -6.732 L 1 -1.732 L 5.08 -4.665 L 6.58 -2.067 L 2 0 L 6.58 2.067 L 5.08 4.665 Z " transform="matrix(0.7 0.0 0.0 0.7 0.0 3.8499999999999996)"  /></svg>