<svg xmlns="http://www.w3.org/2000/svg" viewBox="-30 -30 60 60" width="60" height="60">
<path d="M -29.76 4 Q -26.52 2.986 -26.76 1 A 27 30 0 1 1 26.76 1 Q 26.52 2.986 29.76 4 H 24.2 A 24 28 -20 1 0 -22.97 4 Z  M -22.05 4 Q -18.52 2.927 -19.05 1 A 20 23 0 1 1 19.05 1 Q 18.52 2.927 22.05 4 H 16.32 A 17 21 -20 1 0 -14.01 4 Z  M -13.15 4 Q -9.057 2.676 -10.15 1 A 13 16 0 1 1 10.15 1 Q 9.057 2.676 13.15 4 H 5.18 A 10 14 -20 1 0 -0.8381 4 Z  M 1 -7.268 L 1.5 -2.268 L -1.5 -2.268 L -1 -7.268 L -5.08 -4.335 L -6.58 -6.933 L -2 -9 L -6.58 -11.07 L -5.08 -13.67 L -1 -10.73 L -1.5 -15.73 L 1.5 -15.73 L 1 -10.73 L 5.08 -13.67 L 6.58 -11.07 L 2 -9 L 6.58 -6.933 L 5.08 -4.335 Z " transform="matrix(0.7 0.0 0.0 0.7 0.0 5.6)"  /></svg>