<svg xmlns="http://www.w3.org/2000/svg" viewBox="-30 -30 60 60" width="60" height="60">
<path d="M 3 12.75 A 18 18 0 0 0 11.42 8.914 C 14.42 9.914 15.92 12.91 16.42 15.91 S 18.42 15.41 17.92 12.91 S 16.42 8.414 14.97 5 A 18 18 0 1 0 -14.97 5 C -16.42 8.414 -17.42 10.41 -17.92 12.91 S -16.92 18.91 -16.42 15.91 S -14.42 9.914 -11.42 8.914 A 18 18 0 0 0 -3 12.75 V 18 Q -3 23 -5.5 23 H 5.5 Q 3 23 3 18 Z  M 11.28 -9.104 A 12 16.5 -20 0 1 -11.28 -0.8958 A 12 16.5 -20 0 1 11.28 -9.104 Z " transform="matrix(0.6 0.0 0.0 0.6 0.0 0.0)"  /></svg>