<svg xmlns="http://www.w3.org/2000/svg" viewBox="-41 -48 82 96" width="82" height="96">
    <!-- <circle r="30" fill="none" stroke="black" />
    <line y1="30" stroke="black" />
    <line y1="30" stroke="black" transform="rotate(72)" />
    <line y1="30" stroke="black" transform="rotate(144)" />
    <line y1="30" stroke="black" transform="rotate(-144)" />
    <line y1="30" stroke="black" transform="rotate(-72)" /> -->
    <path d="M 17 -18.33 A 25 25 0 1 0 17 18.33 A 22.57 22.57 -20 0 1 8.894 22 A 21.6 25.65 -20 0 1 -3.489 5.243 C -1.914 3.807 -0.3395 2.227 1.235 0.75 H 27.26 L 22.73 8 L 22.73 10 Q 28.23 2 35.73 0 Q 28.23 -2 22.73 -10 L 22.73 -8 L 25.48 -3.602 C 21.48 -6.483 17.48 -8.803 13.49 -8.352 S 5.496 -4.595 1.5 -0.75 H -4.54 A 21.6 25.65 -20 0 1 5.437 -22.52 A 22.57 22.57 -20 0 1 17 -18.33 Z  M -18.74 -0.75 A 22.57 22.57 -20 0 1 2.641 -22.54 A 27 27 0 0 0 -9.49 -0.75 Z  M -18.22 4.854 A 22.57 22.57 -20 0 1 -18.74 0.75 H -9.49 A 27 27 0 0 0 -8.562 7.053 C -11.78 8.263 -15 7.467 -18.22 4.854 Z  M 2.641 22.54 A 22.57 22.57 -20 0 1 -16.57 9.672 C -13.73 10.91 -10.88 10.49 -8.033 8.778 A 27 27 0 0 0 2.641 22.54 Z  M -3.784 4.115 A 21.6 25.65 -20 0 1 -4.395 0.75 H -0.0563 C -1.299 1.942 -2.542 3.104 -3.784 4.115 Z  M 2.884 -0.75 C 6.401 -3.832 9.918 -5.791 13.44 -5.633 S 20.47 -3.292 23.99 -0.75 Z "
    transform="translate(0, -18) scale(0.5) scale(0.5763491045195387)"  />
    <path d="M 13.01 10.19 A 20 20 0 1 0 5.971 14.09 L 5.369 12.68 A 14 18.5 -20 1 1 11.98 7.788 Z  M -11.75 13.6 A 22 22 0 0 0 -9.096 15.03 L -11.65 21 Q -12.84 23.76 -10 25 H -19 Q -16.1 23.76 -14.92 21 Z  M -0.272 -5.558 L -5.83 7.412 A 12 16.5 -20 0 1 -8.057 4.991 L 0.272 -14.44 L 15.46 21 Q 16.64 23.76 20 25 H 9 Q 12.29 23.76 11.11 21 Z "
    transform="rotate(72) translate(0, -18) rotate(-72) scale(0.5) scale(0.6)"  />
    <path d="M 5.607 -0.7891 A 10 10 0 1 0 0 -13.12 A 10 10 0 1 0 -5.607 -0.7891 L -15 15.48 H 15 Z  M -3.862 -12.05 A 6 8 -20 0 1 -15.14 -7.948 A 6 8 -20 0 1 -3.862 -12.05 Z  M 15.14 -12.05 A 6 8 -20 0 1 3.862 -7.948 A 6 8 -20 0 1 15.14 -12.05 Z  M 10.09 13.98 H -11.82 L -0.866 -5 Z "
    transform="rotate(144) translate(0, -18) rotate(-144) scale(0.5) scale(0.75)"  />
    <path d="M 3 12.75 A 18 18 0 0 0 11.42 8.914 C 14.42 9.914 15.92 12.91 16.42 15.91 S 18.42 15.41 17.92 12.91 S 16.42 8.414 14.97 5 A 18 18 0 1 0 -14.97 5 C -16.42 8.414 -17.42 10.41 -17.92 12.91 S -16.92 18.91 -16.42 15.91 S -14.42 9.914 -11.42 8.914 A 18 18 0 0 0 -3 12.75 V 18 Q -3 23 -5.5 23 H 5.5 Q 3 23 3 18 Z  M 11.28 -9.104 A 12 16.5 -20 0 1 -11.28 -0.8958 A 12 16.5 -20 0 1 11.28 -9.104 Z "
    transform="rotate(-144) translate(0, -18) rotate(144) scale(0.5) scale(0.6)"  />
    <path d="M -29.76 4 Q -26.52 2.986 -26.76 1 A 27 30 0 1 1 26.76 1 Q 26.52 2.986 29.76 4 H 24.2 A 24 28 -20 1 0 -22.97 4 Z  M -22.05 4 Q -18.52 2.927 -19.05 1 A 20 23 0 1 1 19.05 1 Q 18.52 2.927 22.05 4 H 16.32 A 17 21 -20 1 0 -14.01 4 Z  M -13.15 4 Q -9.057 2.676 -10.15 1 A 13 16 0 1 1 10.15 1 Q 9.057 2.676 13.15 4 H 5.18 A 10 14 -20 1 0 -0.8381 4 Z  M 1 -7.268 L 1.5 -2.268 L -1.5 -2.268 L -1 -7.268 L -5.08 -4.335 L -6.58 -6.933 L -2 -9 L -6.58 -11.07 L -5.08 -13.67 L -1 -10.73 L -1.5 -15.73 L 1.5 -15.73 L 1 -10.73 L 5.08 -13.67 L 6.58 -11.07 L 2 -9 L 6.58 -6.933 L 5.08 -4.335 Z"
    transform="rotate(-72) translate(0, -18) rotate(72) scale(0.5) translate(0, 10) scale(0.7)"  />
</svg>