<svg xmlns="http://www.w3.org/2000/svg" viewBox="-30 -30 60 60" width="60" height="60">
<path d="M 2 -0.161 A 12.5 12.5 0 1 0 -2 -0.161 V 5.052 A 22 24 -20 0 1 -19.41 -7.684 A 20 20 0 0 0 -2 7.4 V 12.75 H -10 V 13.75 H -2 V 19 Q -2 24 -4.5 24 V 25 H 4.5 V 24 Q 2 24 2 19 V 13.75 H 6.75 Q 9.25 13.75 9.25 15.25 H 10 V 12.75 H 2 V 7.4 A 20 20 0 0 0 17.97 -3.726 A 22 24 -20 0 1 2 5.253 Z  M 7.987 -15.41 A 8.5 11 -20 0 1 -7.987 -9.593 A 8.5 11 -20 0 1 7.987 -15.41 Z " transform="matrix(0.6 0.0 0.0 0.6 0.0 0.0)"  /></svg>